<?xml version="1.0" encoding="UTF-8"?>
<!DOCTYPE svg PUBLIC "-//W3C//DTD SVG 1.1//EN" "http://www.w3.org/Graphics/SVG/1.1/DTD/svg11.dtd">
<svg version="1.2" width="440mm" height="390mm" viewBox="0 0 44000 39000" preserveAspectRatio="xMidYMid" fill-rule="evenodd" stroke-width="28.222" stroke-linejoin="round" xmlns="http://www.w3.org/2000/svg" xmlns:ooo="http://xml.openoffice.org/svg/export" xmlns:xlink="http://www.w3.org/1999/xlink" xmlns:presentation="http://sun.com/xmlns/staroffice/presentation" xmlns:smil="http://www.w3.org/2001/SMIL20/" xmlns:anim="urn:oasis:names:tc:opendocument:xmlns:animation:1.0" xml:space="preserve">
 <defs class="ClipPathGroup">
  <clipPath id="presentation_clip_path" clipPathUnits="userSpaceOnUse">
   <rect x="0" y="0" width="44000" height="39000"/>
  </clipPath>
  <clipPath id="presentation_clip_path_shrink" clipPathUnits="userSpaceOnUse">
   <rect x="44" y="39" width="43912" height="38922"/>
  </clipPath>
 </defs>
 <defs class="TextShapeIndex">
  <g ooo:slide="id1" ooo:id-list="id3 id4 id5 id6 id7 id8 id9 id10 id11 id12 id13 id14 id15 id16 id17 id18 id19 id20 id21 id22 id23 id24 id25 id26 id27 id28 id29 id30 id31 id32 id33 id34 id35 id36 id37 id38 id39 id40 id41 id42 id43 id44 id45 id46 id47 id48 id49 id50 id51 id52 id53 id54 id55 id56 id57 id58 id59 id60 id61 id62 id63 id64 id65 id66 id67 id68 id69 id70 id71 id72 id73 id74 id75"/>
 </defs>
 <defs class="EmbeddedBulletChars">
  <g id="bullet-char-template-57356" transform="scale(0.00048828125,-0.00048828125)">
   <path d="M 580,1141 L 1163,571 580,0 -4,571 580,1141 Z"/>
  </g>
  <g id="bullet-char-template-57354" transform="scale(0.00048828125,-0.00048828125)">
   <path d="M 8,1128 L 1137,1128 1137,0 8,0 8,1128 Z"/>
  </g>
  <g id="bullet-char-template-10146" transform="scale(0.00048828125,-0.00048828125)">
   <path d="M 174,0 L 602,739 174,1481 1456,739 174,0 Z M 1358,739 L 309,1346 659,739 1358,739 Z"/>
  </g>
  <g id="bullet-char-template-10132" transform="scale(0.00048828125,-0.00048828125)">
   <path d="M 2015,739 L 1276,0 717,0 1260,543 174,543 174,936 1260,936 717,1481 1274,1481 2015,739 Z"/>
  </g>
  <g id="bullet-char-template-10007" transform="scale(0.00048828125,-0.00048828125)">
   <path d="M 0,-2 C -7,14 -16,27 -25,37 L 356,567 C 262,823 215,952 215,954 215,979 228,992 255,992 264,992 276,990 289,987 310,991 331,999 354,1012 L 381,999 492,748 772,1049 836,1024 860,1049 C 881,1039 901,1025 922,1006 886,937 835,863 770,784 769,783 710,716 594,584 L 774,223 C 774,196 753,168 711,139 L 727,119 C 717,90 699,76 672,76 641,76 570,178 457,381 L 164,-76 C 142,-110 111,-127 72,-127 30,-127 9,-110 8,-76 1,-67 -2,-52 -2,-32 -2,-23 -1,-13 0,-2 Z"/>
  </g>
  <g id="bullet-char-template-10004" transform="scale(0.00048828125,-0.00048828125)">
   <path d="M 285,-33 C 182,-33 111,30 74,156 52,228 41,333 41,471 41,549 55,616 82,672 116,743 169,778 240,778 293,778 328,747 346,684 L 369,508 C 377,444 397,411 428,410 L 1163,1116 C 1174,1127 1196,1133 1229,1133 1271,1133 1292,1118 1292,1087 L 1292,965 C 1292,929 1282,901 1262,881 L 442,47 C 390,-6 338,-33 285,-33 Z"/>
  </g>
  <g id="bullet-char-template-9679" transform="scale(0.00048828125,-0.00048828125)">
   <path d="M 813,0 C 632,0 489,54 383,161 276,268 223,411 223,592 223,773 276,916 383,1023 489,1130 632,1184 813,1184 992,1184 1136,1130 1245,1023 1353,916 1407,772 1407,592 1407,412 1353,268 1245,161 1136,54 992,0 813,0 Z"/>
  </g>
  <g id="bullet-char-template-8226" transform="scale(0.00048828125,-0.00048828125)">
   <path d="M 346,457 C 273,457 209,483 155,535 101,586 74,649 74,723 74,796 101,859 155,911 209,963 273,989 346,989 419,989 480,963 531,910 582,859 608,796 608,723 608,648 583,586 532,535 482,483 420,457 346,457 Z"/>
  </g>
  <g id="bullet-char-template-8211" transform="scale(0.00048828125,-0.00048828125)">
   <path d="M -4,459 L 1135,459 1135,606 -4,606 -4,459 Z"/>
  </g>
  <g id="bullet-char-template-61548" transform="scale(0.00048828125,-0.00048828125)">
   <path d="M 173,740 C 173,903 231,1043 346,1159 462,1274 601,1332 765,1332 928,1332 1067,1274 1183,1159 1299,1043 1357,903 1357,740 1357,577 1299,437 1183,322 1067,206 928,148 765,148 601,148 462,206 346,322 231,437 173,577 173,740 Z"/>
  </g>
 </defs>
 <g>
  <g id="id2" class="Master_Slide">
   <g id="bg-id2" class="Background"/>
   <g id="bo-id2" class="BackgroundObjects"/>
  </g>
 </g>
 <g class="SlideGroup">
  <g>
   <g id="container-id1">
    <g id="id1" class="Slide" clip-path="url(#presentation_clip_path)">
     <g class="Page">
      <g class="com.sun.star.drawing.ClosedBezierShape">
       <g id="id3">
        <rect class="BoundingBox" stroke="none" fill="none" x="25200" y="29567" width="548" height="836"/>
        <path fill="rgb(247,209,213)" stroke="none" d="M 25602,29684 C 25768,29872 25797,30215 25659,30353 25523,30489 25296,30324 25224,30039 25125,29645 25368,29417 25602,29684 Z"/>
        <path fill="none" stroke="rgb(52,101,164)" d="M 25602,29684 C 25768,29872 25797,30215 25659,30353 25523,30489 25296,30324 25224,30039 25125,29645 25368,29417 25602,29684 Z"/>
       </g>
      </g>
      <g class="com.sun.star.drawing.ClosedBezierShape">
       <g id="id4">
        <rect class="BoundingBox" stroke="none" fill="none" x="18235" y="29349" width="354" height="423"/>
        <path fill="rgb(247,209,213)" stroke="none" d="M 18425,29350 C 18595,29350 18642,29521 18516,29680 18397,29832 18236,29784 18236,29598 18236,29473 18330,29350 18425,29350 Z"/>
        <path fill="none" stroke="rgb(52,101,164)" d="M 18425,29350 C 18595,29350 18642,29521 18516,29680 18397,29832 18236,29784 18236,29598 18236,29473 18330,29350 18425,29350 Z"/>
       </g>
      </g>
      <g class="com.sun.star.drawing.ClosedBezierShape">
       <g id="id5">
        <rect class="BoundingBox" stroke="none" fill="none" x="24670" y="28531" width="418" height="608"/>
        <path fill="rgb(247,209,213)" stroke="none" d="M 24997,29062 C 24953,29104 24901,29138 24883,29137 24734,29132 24627,28891 24689,28702 24744,28537 24869,28485 24989,28578 25114,28677 25119,28947 24997,29062 Z"/>
        <path fill="none" stroke="rgb(52,101,164)" d="M 24997,29062 C 24953,29104 24901,29138 24883,29137 24734,29132 24627,28891 24689,28702 24744,28537 24869,28485 24989,28578 25114,28677 25119,28947 24997,29062 Z"/>
       </g>
      </g>
      <g class="com.sun.star.drawing.ClosedBezierShape">
       <g id="id6">
        <rect class="BoundingBox" stroke="none" fill="none" x="18645" y="28326" width="550" height="713"/>
        <path fill="rgb(247,209,213)" stroke="none" d="M 19018,28327 C 19255,28327 19251,28632 19011,28905 18874,29062 18712,29082 18661,28949 18584,28745 18824,28327 19018,28327 Z"/>
        <path fill="none" stroke="rgb(52,101,164)" d="M 19018,28327 C 19255,28327 19251,28632 19011,28905 18874,29062 18712,29082 18661,28949 18584,28745 18824,28327 19018,28327 Z"/>
       </g>
      </g>
      <g class="com.sun.star.drawing.ClosedBezierShape">
       <g id="id7">
        <rect class="BoundingBox" stroke="none" fill="none" x="24672" y="27903" width="193" height="313"/>
        <path fill="rgb(247,209,213)" stroke="none" d="M 24757,27904 C 24819,27904 24872,28007 24861,28104 24847,28228 24746,28254 24690,28148 24647,28067 24691,27904 24757,27904 Z"/>
        <path fill="none" stroke="rgb(52,101,164)" d="M 24757,27904 C 24819,27904 24872,28007 24861,28104 24847,28228 24746,28254 24690,28148 24647,28067 24691,27904 24757,27904 Z"/>
       </g>
      </g>
      <g class="com.sun.star.drawing.ClosedBezierShape">
       <g id="id8">
        <rect class="BoundingBox" stroke="none" fill="none" x="14817" y="27215" width="452" height="791"/>
        <path fill="rgb(247,209,213)" stroke="none" d="M 15029,27973 C 14869,28058 14800,27971 14822,27708 14844,27447 14998,27216 15151,27216 15252,27216 15256,27222 15266,27399 15278,27603 15153,27906 15029,27973 Z"/>
        <path fill="none" stroke="rgb(52,101,164)" d="M 15029,27973 C 14869,28058 14800,27971 14822,27708 14844,27447 14998,27216 15151,27216 15252,27216 15256,27222 15266,27399 15278,27603 15153,27906 15029,27973 Z"/>
       </g>
      </g>
      <g class="com.sun.star.drawing.ClosedBezierShape">
       <g id="id9">
        <rect class="BoundingBox" stroke="none" fill="none" x="18801" y="27589" width="277" height="376"/>
        <path fill="rgb(247,209,213)" stroke="none" d="M 19055,27675 C 19089,27750 19084,27780 19025,27858 18940,27972 18900,27988 18844,27932 18779,27868 18792,27736 18871,27657 18965,27563 19006,27568 19055,27675 Z"/>
        <path fill="none" stroke="rgb(52,101,164)" d="M 19055,27675 C 19089,27750 19084,27780 19025,27858 18940,27972 18900,27988 18844,27932 18779,27868 18792,27736 18871,27657 18965,27563 19006,27568 19055,27675 Z"/>
       </g>
      </g>
      <g class="com.sun.star.drawing.ClosedBezierShape">
       <g id="id10">
        <rect class="BoundingBox" stroke="none" fill="none" x="19212" y="26904" width="579" height="822"/>
        <path fill="rgb(247,209,213)" stroke="none" d="M 19535,27678 C 19406,27745 19353,27740 19277,27656 19128,27492 19255,27048 19482,26939 19670,26847 19789,26945 19789,27191 19789,27380 19670,27608 19535,27678 Z"/>
        <path fill="none" stroke="rgb(52,101,164)" d="M 19535,27678 C 19406,27745 19353,27740 19277,27656 19128,27492 19255,27048 19482,26939 19670,26847 19789,26945 19789,27191 19789,27380 19670,27608 19535,27678 Z"/>
       </g>
      </g>
      <g class="com.sun.star.drawing.ClosedBezierShape">
       <g id="id11">
        <rect class="BoundingBox" stroke="none" fill="none" x="24872" y="26899" width="452" height="830"/>
        <path fill="rgb(247,209,213)" stroke="none" d="M 25147,27625 C 25094,27681 25026,27727 24996,27727 24774,27727 24877,27049 25118,26925 25192,26887 25210,26890 25264,26955 25378,27093 25317,27442 25147,27625 Z"/>
        <path fill="none" stroke="rgb(52,101,164)" d="M 25147,27625 C 25094,27681 25026,27727 24996,27727 24774,27727 24877,27049 25118,26925 25192,26887 25210,26890 25264,26955 25378,27093 25317,27442 25147,27625 Z"/>
       </g>
      </g>
      <g class="com.sun.star.drawing.ClosedBezierShape">
       <g id="id12">
        <rect class="BoundingBox" stroke="none" fill="none" x="14933" y="26541" width="269" height="341"/>
        <path fill="rgb(247,209,213)" stroke="none" d="M 15154,26567 C 15218,26620 15215,26705 15148,26802 15031,26968 14873,26846 14959,26657 15009,26549 15088,26512 15154,26567 Z"/>
        <path fill="none" stroke="rgb(52,101,164)" d="M 15154,26567 C 15218,26620 15215,26705 15148,26802 15031,26968 14873,26846 14959,26657 15009,26549 15088,26512 15154,26567 Z"/>
       </g>
      </g>
      <g class="com.sun.star.drawing.ClosedBezierShape">
       <g id="id13">
        <rect class="BoundingBox" stroke="none" fill="none" x="19068" y="26209" width="333" height="459"/>
        <path fill="rgb(247,209,213)" stroke="none" d="M 19336,26611 C 19203,26731 19069,26645 19069,26440 19069,26237 19221,26141 19345,26266 19421,26342 19416,26538 19336,26611 Z"/>
        <path fill="none" stroke="rgb(52,101,164)" d="M 19336,26611 C 19203,26731 19069,26645 19069,26440 19069,26237 19221,26141 19345,26266 19421,26342 19416,26538 19336,26611 Z"/>
       </g>
      </g>
      <g class="com.sun.star.drawing.ClosedBezierShape">
       <g id="id14">
        <rect class="BoundingBox" stroke="none" fill="none" x="15307" y="25880" width="412" height="639"/>
        <path fill="rgb(247,209,213)" stroke="none" d="M 15640,26411 C 15495,26605 15308,26521 15308,26260 15309,26003 15504,25804 15651,25911 15744,25980 15738,26279 15640,26411 Z"/>
        <path fill="none" stroke="rgb(52,101,164)" d="M 15640,26411 C 15495,26605 15308,26521 15308,26260 15309,26003 15504,25804 15651,25911 15744,25980 15738,26279 15640,26411 Z"/>
       </g>
      </g>
      <g class="com.sun.star.drawing.ClosedBezierShape">
       <g id="id15">
        <rect class="BoundingBox" stroke="none" fill="none" x="31781" y="26139" width="490" height="388"/>
        <path fill="rgb(247,209,213)" stroke="none" d="M 31962,26140 C 32177,26140 32359,26379 32221,26480 32118,26556 31996,26536 31885,26425 31828,26368 31782,26306 31782,26286 31782,26226 31889,26140 31962,26140 Z"/>
        <path fill="none" stroke="rgb(52,101,164)" d="M 31962,26140 C 32177,26140 32359,26379 32221,26480 32118,26556 31996,26536 31885,26425 31828,26368 31782,26306 31782,26286 31782,26226 31889,26140 31962,26140 Z"/>
       </g>
      </g>
      <g class="com.sun.star.drawing.ClosedBezierShape">
       <g id="id16">
        <rect class="BoundingBox" stroke="none" fill="none" x="25343" y="25574" width="441" height="704"/>
        <path fill="rgb(247,209,213)" stroke="none" d="M 25647,25575 C 25849,25575 25816,26075 25604,26223 25469,26318 25394,26286 25352,26114 25304,25917 25491,25575 25647,25575 Z"/>
        <path fill="none" stroke="rgb(52,101,164)" d="M 25647,25575 C 25849,25575 25816,26075 25604,26223 25469,26318 25394,26286 25352,26114 25304,25917 25491,25575 25647,25575 Z"/>
       </g>
      </g>
      <g class="com.sun.star.drawing.ClosedBezierShape">
       <g id="id17">
        <rect class="BoundingBox" stroke="none" fill="none" x="31006" y="25297" width="653" height="884"/>
        <path fill="rgb(247,209,213)" stroke="none" d="M 31362,25374 C 31591,25528 31737,25964 31610,26117 31522,26223 31361,26189 31214,26034 31009,25819 30943,25497 31076,25364 31167,25273 31215,25275 31362,25374 Z"/>
        <path fill="none" stroke="rgb(52,101,164)" d="M 31362,25374 C 31591,25528 31737,25964 31610,26117 31522,26223 31361,26189 31214,26034 31009,25819 30943,25497 31076,25364 31167,25273 31215,25275 31362,25374 Z"/>
       </g>
      </g>
      <g class="com.sun.star.drawing.ClosedBezierShape">
       <g id="id18">
        <rect class="BoundingBox" stroke="none" fill="none" x="19261" y="24922" width="561" height="1182"/>
        <path fill="rgb(247,209,213)" stroke="none" d="M 19677,26031 C 19382,26348 19112,25526 19357,25055 19415,24942 19442,24923 19543,24923 19640,24923 19674,24944 19730,25040 19871,25283 19841,25856 19677,26031 Z"/>
        <path fill="none" stroke="rgb(52,101,164)" d="M 19677,26031 C 19382,26348 19112,25526 19357,25055 19415,24942 19442,24923 19543,24923 19640,24923 19674,24944 19730,25040 19871,25283 19841,25856 19677,26031 Z"/>
       </g>
      </g>
      <g class="com.sun.star.drawing.ClosedBezierShape">
       <g id="id19">
        <rect class="BoundingBox" stroke="none" fill="none" x="15060" y="25292" width="250" height="369"/>
        <path fill="rgb(247,209,213)" stroke="none" d="M 15198,25293 C 15257,25293 15308,25385 15308,25493 15308,25642 15204,25710 15119,25616 15087,25581 15061,25519 15061,25478 15061,25407 15145,25293 15198,25293 Z"/>
        <path fill="none" stroke="rgb(52,101,164)" d="M 15198,25293 C 15257,25293 15308,25385 15308,25493 15308,25642 15204,25710 15119,25616 15087,25581 15061,25519 15061,25478 15061,25407 15145,25293 15198,25293 Z"/>
       </g>
      </g>
      <g class="com.sun.star.drawing.ClosedBezierShape">
       <g id="id20">
        <rect class="BoundingBox" stroke="none" fill="none" x="30475" y="24874" width="348" height="627"/>
        <path fill="rgb(247,209,213)" stroke="none" d="M 30799,25419 C 30748,25531 30713,25527 30605,25398 30449,25213 30430,24897 30573,24876 30720,24855 30881,25240 30799,25419 Z"/>
        <path fill="none" stroke="rgb(52,101,164)" d="M 30799,25419 C 30748,25531 30713,25527 30605,25398 30449,25213 30430,24897 30573,24876 30720,24855 30881,25240 30799,25419 Z"/>
       </g>
      </g>
      <g class="com.sun.star.drawing.ClosedBezierShape">
       <g id="id21">
        <rect class="BoundingBox" stroke="none" fill="none" x="25800" y="25122" width="173" height="311"/>
        <path fill="rgb(247,209,213)" stroke="none" d="M 25958,25355 C 25920,25455 25869,25456 25818,25359 25771,25272 25828,25102 25896,25125 25958,25145 25990,25267 25958,25355 Z"/>
        <path fill="none" stroke="rgb(52,101,164)" d="M 25958,25355 C 25920,25455 25869,25456 25818,25359 25771,25272 25828,25102 25896,25125 25958,25145 25990,25267 25958,25355 Z"/>
       </g>
      </g>
      <g class="com.sun.star.drawing.ClosedBezierShape">
       <g id="id22">
        <rect class="BoundingBox" stroke="none" fill="none" x="15416" y="24482" width="510" height="806"/>
        <path fill="rgb(247,209,213)" stroke="none" d="M 15850,25178 C 15781,25271 15659,25310 15563,25270 15425,25212 15367,24817 15468,24622 15522,24517 15653,24457 15747,24494 15923,24561 15988,24992 15850,25178 Z"/>
        <path fill="none" stroke="rgb(52,101,164)" d="M 15850,25178 C 15781,25271 15659,25310 15563,25270 15425,25212 15367,24817 15468,24622 15522,24517 15653,24457 15747,24494 15923,24561 15988,24992 15850,25178 Z"/>
       </g>
      </g>
      <g class="com.sun.star.drawing.ClosedBezierShape">
       <g id="id23">
        <rect class="BoundingBox" stroke="none" fill="none" x="25293" y="24234" width="407" height="879"/>
        <path fill="rgb(247,209,213)" stroke="none" d="M 25622,24999 C 25581,25054 25523,25104 25492,25110 25322,25144 25221,24569 25359,24349 25401,24283 25460,24235 25501,24235 25683,24235 25772,24798 25622,24999 Z"/>
        <path fill="none" stroke="rgb(52,101,164)" d="M 25622,24999 C 25581,25054 25523,25104 25492,25110 25322,25144 25221,24569 25359,24349 25401,24283 25460,24235 25501,24235 25683,24235 25772,24798 25622,24999 Z"/>
       </g>
      </g>
      <g class="com.sun.star.drawing.ClosedBezierShape">
       <g id="id24">
        <rect class="BoundingBox" stroke="none" fill="none" x="30689" y="24486" width="177" height="256"/>
        <path fill="rgb(247,209,213)" stroke="none" d="M 30831,24519 C 30849,24547 30864,24596 30864,24627 30865,24714 30781,24772 30730,24721 30672,24663 30678,24569 30744,24515 30790,24477 30805,24477 30831,24519 Z"/>
        <path fill="none" stroke="rgb(52,101,164)" d="M 30831,24519 C 30849,24547 30864,24596 30864,24627 30865,24714 30781,24772 30730,24721 30672,24663 30678,24569 30744,24515 30790,24477 30805,24477 30831,24519 Z"/>
       </g>
      </g>
      <g class="com.sun.star.drawing.ClosedBezierShape">
       <g id="id25">
        <rect class="BoundingBox" stroke="none" fill="none" x="18943" y="24378" width="283" height="351"/>
        <path fill="rgb(247,209,213)" stroke="none" d="M 19203,24673 C 19177,24739 19045,24747 18984,24686 18925,24627 18932,24497 18997,24431 19063,24366 19068,24365 19156,24412 19224,24449 19244,24564 19203,24673 Z"/>
        <path fill="none" stroke="rgb(52,101,164)" d="M 19203,24673 C 19177,24739 19045,24747 18984,24686 18925,24627 18932,24497 18997,24431 19063,24366 19068,24365 19156,24412 19224,24449 19244,24564 19203,24673 Z"/>
       </g>
      </g>
      <g class="com.sun.star.drawing.ClosedBezierShape">
       <g id="id26">
        <rect class="BoundingBox" stroke="none" fill="none" x="30239" y="24111" width="315" height="476"/>
        <path fill="rgb(247,209,213)" stroke="none" d="M 30492,24532 C 30461,24563 30425,24586 30412,24585 30227,24563 30173,24216 30341,24126 30503,24039 30633,24390 30492,24532 Z"/>
        <path fill="none" stroke="rgb(52,101,164)" d="M 30492,24532 C 30461,24563 30425,24586 30412,24585 30227,24563 30173,24216 30341,24126 30503,24039 30633,24390 30492,24532 Z"/>
       </g>
      </g>
      <g class="com.sun.star.drawing.ClosedBezierShape">
       <g id="id27">
        <rect class="BoundingBox" stroke="none" fill="none" x="25819" y="23881" width="322" height="545"/>
        <path fill="rgb(247,209,213)" stroke="none" d="M 26103,24339 C 26010,24513 25820,24401 25820,24172 25820,24031 25900,23882 25975,23882 26107,23882 26190,24177 26103,24339 Z"/>
        <path fill="none" stroke="rgb(52,101,164)" d="M 26103,24339 C 26010,24513 25820,24401 25820,24172 25820,24031 25900,23882 25975,23882 26107,23882 26190,24177 26103,24339 Z"/>
       </g>
      </g>
      <g class="com.sun.star.drawing.ClosedBezierShape">
       <g id="id28">
        <rect class="BoundingBox" stroke="none" fill="none" x="19125" y="23422" width="551" height="812"/>
        <path fill="rgb(247,209,213)" stroke="none" d="M 19508,24198 C 19403,24255 19334,24242 19242,24151 19018,23926 19140,23423 19420,23423 19702,23423 19775,24056 19508,24198 Z"/>
        <path fill="none" stroke="rgb(52,101,164)" d="M 19508,24198 C 19403,24255 19334,24242 19242,24151 19018,23926 19140,23423 19420,23423 19702,23423 19775,24056 19508,24198 Z"/>
       </g>
      </g>
      <g class="com.sun.star.drawing.ClosedBezierShape">
       <g id="id29">
        <rect class="BoundingBox" stroke="none" fill="none" x="15273" y="22984" width="557" height="864"/>
        <path fill="rgb(247,209,213)" stroke="none" d="M 15727,23756 C 15634,23875 15489,23876 15378,23758 15268,23640 15238,23311 15324,23145 15405,22988 15541,22941 15659,23029 15851,23172 15887,23553 15727,23756 Z"/>
        <path fill="none" stroke="rgb(52,101,164)" d="M 15727,23756 C 15634,23875 15489,23876 15378,23758 15268,23640 15238,23311 15324,23145 15405,22988 15541,22941 15659,23029 15851,23172 15887,23553 15727,23756 Z"/>
       </g>
      </g>
      <g class="com.sun.star.drawing.ClosedBezierShape">
       <g id="id30">
        <rect class="BoundingBox" stroke="none" fill="none" x="30028" y="23043" width="474" height="707"/>
        <path fill="rgb(247,209,213)" stroke="none" d="M 30490,23570 C 30415,23831 30179,23799 30070,23514 29953,23207 30101,22943 30313,23082 30434,23161 30531,23428 30490,23570 Z"/>
        <path fill="none" stroke="rgb(52,101,164)" d="M 30490,23570 C 30415,23831 30179,23799 30070,23514 29953,23207 30101,22943 30313,23082 30434,23161 30531,23428 30490,23570 Z"/>
       </g>
      </g>
      <g class="com.sun.star.drawing.ClosedBezierShape">
       <g id="id31">
        <rect class="BoundingBox" stroke="none" fill="none" x="25295" y="22507" width="629" height="1229"/>
        <path fill="rgb(247,209,213)" stroke="none" d="M 25834,23674 C 25618,23913 25269,23401 25298,22885 25308,22697 25327,22631 25390,22568 25463,22494 25475,22493 25564,22543 25862,22710 26038,23448 25834,23674 Z"/>
        <path fill="none" stroke="rgb(52,101,164)" d="M 25834,23674 C 25618,23913 25269,23401 25298,22885 25308,22697 25327,22631 25390,22568 25463,22494 25475,22493 25564,22543 25862,22710 26038,23448 25834,23674 Z"/>
       </g>
      </g>
      <g class="com.sun.star.drawing.ClosedBezierShape">
       <g id="id32">
        <rect class="BoundingBox" stroke="none" fill="none" x="30236" y="22593" width="201" height="261"/>
        <path fill="rgb(247,209,213)" stroke="none" d="M 30434,22769 C 30418,22877 30308,22880 30260,22774 30228,22705 30229,22673 30265,22630 30306,22580 30317,22581 30377,22636 30414,22669 30440,22729 30434,22769 Z"/>
        <path fill="none" stroke="rgb(52,101,164)" d="M 30434,22769 C 30418,22877 30308,22880 30260,22774 30228,22705 30229,22673 30265,22630 30306,22580 30317,22581 30377,22636 30414,22669 30440,22729 30434,22769 Z"/>
       </g>
      </g>
      <g class="com.sun.star.drawing.ClosedBezierShape">
       <g id="id33">
        <rect class="BoundingBox" stroke="none" fill="none" x="29495" y="22087" width="555" height="699"/>
        <path fill="rgb(247,209,213)" stroke="none" d="M 29677,22089 C 29883,22065 30112,22447 30031,22679 30007,22749 29971,22774 29883,22782 29787,22791 29745,22770 29647,22666 29433,22440 29450,22116 29677,22089 Z"/>
        <path fill="none" stroke="rgb(52,101,164)" d="M 29677,22089 C 29883,22065 30112,22447 30031,22679 30007,22749 29971,22774 29883,22782 29787,22791 29745,22770 29647,22666 29433,22440 29450,22116 29677,22089 Z"/>
       </g>
      </g>
      <g class="com.sun.star.drawing.ClosedBezierShape">
       <g id="id34">
        <rect class="BoundingBox" stroke="none" fill="none" x="14815" y="21200" width="910" height="1310"/>
        <path fill="rgb(247,209,213)" stroke="none" d="M 15523,21341 C 15791,21622 15789,22103 15519,22374 15362,22532 15199,22551 15044,22430 14726,22179 14745,21470 15075,21268 15251,21161 15370,21181 15523,21341 Z"/>
        <path fill="none" stroke="rgb(52,101,164)" d="M 15523,21341 C 15791,21622 15789,22103 15519,22374 15362,22532 15199,22551 15044,22430 14726,22179 14745,21470 15075,21268 15251,21161 15370,21181 15523,21341 Z"/>
       </g>
      </g>
      <g class="com.sun.star.drawing.ClosedBezierShape">
       <g id="id35">
        <rect class="BoundingBox" stroke="none" fill="none" x="28712" y="20950" width="633" height="882"/>
        <path fill="rgb(247,209,213)" stroke="none" d="M 29281,21761 C 29188,21854 29174,21854 29027,21757 28890,21666 28713,21347 28713,21192 28713,20712 29264,21013 29335,21531 29352,21660 29343,21699 29281,21761 Z"/>
        <path fill="none" stroke="rgb(52,101,164)" d="M 29281,21761 C 29188,21854 29174,21854 29027,21757 28890,21666 28713,21347 28713,21192 28713,20712 29264,21013 29335,21531 29352,21660 29343,21699 29281,21761 Z"/>
       </g>
      </g>
      <g class="com.sun.star.drawing.ClosedBezierShape">
       <g id="id36">
        <rect class="BoundingBox" stroke="none" fill="none" x="29635" y="21594" width="197" height="227"/>
        <path fill="rgb(247,209,213)" stroke="none" d="M 29807,21662 C 29840,21722 29838,21749 29799,21788 29758,21829 29740,21829 29686,21790 29610,21734 29624,21612 29707,21596 29740,21590 29785,21619 29807,21662 Z"/>
        <path fill="none" stroke="rgb(52,101,164)" d="M 29807,21662 C 29840,21722 29838,21749 29799,21788 29758,21829 29740,21829 29686,21790 29610,21734 29624,21612 29707,21596 29740,21590 29785,21619 29807,21662 Z"/>
       </g>
      </g>
      <g class="com.sun.star.drawing.ClosedBezierShape">
       <g id="id37">
        <rect class="BoundingBox" stroke="none" fill="none" x="30939" y="18382" width="870" height="664"/>
        <path fill="rgb(247,209,213)" stroke="none" d="M 31671,19010 C 31547,19054 31551,19054 31429,19016 31045,18899 30813,18574 31014,18435 31130,18353 31319,18369 31516,18478 31825,18647 31906,18928 31671,19010 Z"/>
        <path fill="none" stroke="rgb(52,101,164)" d="M 31671,19010 C 31547,19054 31551,19054 31429,19016 31045,18899 30813,18574 31014,18435 31130,18353 31319,18369 31516,18478 31825,18647 31906,18928 31671,19010 Z"/>
       </g>
      </g>
      <g class="com.sun.star.drawing.ClosedBezierShape">
       <g id="id38">
        <rect class="BoundingBox" stroke="none" fill="none" x="32028" y="18590" width="499" height="353"/>
        <path fill="rgb(247,209,213)" stroke="none" d="M 32458,18885 C 32337,18995 32029,18932 32029,18798 32029,18728 32205,18591 32294,18591 32505,18591 32598,18758 32458,18885 Z"/>
        <path fill="none" stroke="rgb(52,101,164)" d="M 32458,18885 C 32337,18995 32029,18932 32029,18798 32029,18728 32205,18591 32294,18591 32505,18591 32598,18758 32458,18885 Z"/>
       </g>
      </g>
      <g class="com.sun.star.drawing.ClosedBezierShape">
       <g id="id39">
        <rect class="BoundingBox" stroke="none" fill="none" x="30207" y="18414" width="549" height="451"/>
        <path fill="rgb(247,209,213)" stroke="none" d="M 30752,18792 C 30725,18938 30433,18843 30276,18638 30170,18500 30189,18415 30325,18415 30518,18416 30780,18646 30752,18792 Z"/>
        <path fill="none" stroke="rgb(52,101,164)" d="M 30752,18792 C 30725,18938 30433,18843 30276,18638 30170,18500 30189,18415 30325,18415 30518,18416 30780,18646 30752,18792 Z"/>
       </g>
      </g>
      <g class="com.sun.star.drawing.ClosedBezierShape">
       <g id="id40">
        <rect class="BoundingBox" stroke="none" fill="none" x="10730" y="18031" width="873" height="645"/>
        <path fill="rgb(247,209,213)" stroke="none" d="M 11512,18414 C 11461,18475 11361,18552 11291,18588 10748,18863 10491,18418 11024,18125 11425,17904 11769,18108 11512,18414 Z"/>
        <path fill="none" stroke="rgb(52,101,164)" d="M 11512,18414 C 11461,18475 11361,18552 11291,18588 10748,18863 10491,18418 11024,18125 11425,17904 11769,18108 11512,18414 Z"/>
       </g>
      </g>
      <g class="com.sun.star.drawing.ClosedBezierShape">
       <g id="id41">
        <rect class="BoundingBox" stroke="none" fill="none" x="10017" y="18237" width="491" height="355"/>
        <path fill="rgb(247,209,213)" stroke="none" d="M 10424,18325 C 10525,18427 10530,18461 10455,18535 10378,18612 10148,18607 10075,18526 9883,18315 10219,18120 10424,18325 Z"/>
        <path fill="none" stroke="rgb(52,101,164)" d="M 10424,18325 C 10525,18427 10530,18461 10455,18535 10378,18612 10148,18607 10075,18526 9883,18315 10219,18120 10424,18325 Z"/>
       </g>
      </g>
      <g class="com.sun.star.drawing.ClosedBezierShape">
       <g id="id42">
        <rect class="BoundingBox" stroke="none" fill="none" x="11783" y="18061" width="554" height="458"/>
        <path fill="rgb(247,209,213)" stroke="none" d="M 12051,18463 C 11896,18536 11820,18535 11791,18463 11738,18325 12013,18062 12210,18062 12268,18062 12321,18085 12332,18116 12361,18191 12196,18394 12051,18463 Z"/>
        <path fill="none" stroke="rgb(52,101,164)" d="M 12051,18463 C 11896,18536 11820,18535 11791,18463 11738,18325 12013,18062 12210,18062 12268,18062 12321,18085 12332,18116 12361,18191 12196,18394 12051,18463 Z"/>
       </g>
      </g>
      <g class="com.sun.star.drawing.ClosedBezierShape">
       <g id="id43">
        <rect class="BoundingBox" stroke="none" fill="none" x="29610" y="17891" width="369" height="412"/>
        <path fill="rgb(247,209,213)" stroke="none" d="M 29631,17954 C 29718,17791 29996,17976 29976,18184 29967,18270 29947,18293 29877,18300 29710,18317 29555,18097 29631,17954 Z"/>
        <path fill="none" stroke="rgb(52,101,164)" d="M 29631,17954 C 29718,17791 29996,17976 29976,18184 29967,18270 29947,18293 29877,18300 29710,18317 29555,18097 29631,17954 Z"/>
       </g>
      </g>
      <g class="com.sun.star.drawing.ClosedBezierShape">
       <g id="id44">
        <rect class="BoundingBox" stroke="none" fill="none" x="30170" y="17996" width="196" height="227"/>
        <path fill="rgb(247,209,213)" stroke="none" d="M 30341,18078 C 30402,18213 30332,18271 30231,18170 30147,18085 30151,18016 30241,17998 30276,17991 30316,18023 30341,18078 Z"/>
        <path fill="none" stroke="rgb(52,101,164)" d="M 30341,18078 C 30402,18213 30332,18271 30231,18170 30147,18085 30151,18016 30241,17998 30276,17991 30316,18023 30341,18078 Z"/>
       </g>
      </g>
      <g class="com.sun.star.drawing.ClosedBezierShape">
       <g id="id45">
        <rect class="BoundingBox" stroke="none" fill="none" x="12551" y="17532" width="373" height="425"/>
        <path fill="rgb(247,209,213)" stroke="none" d="M 12811,17908 C 12746,17958 12619,17971 12580,17933 12485,17838 12653,17533 12801,17533 12957,17533 12964,17792 12811,17908 Z"/>
        <path fill="none" stroke="rgb(52,101,164)" d="M 12811,17908 C 12746,17958 12619,17971 12580,17933 12485,17838 12653,17533 12801,17533 12957,17533 12964,17792 12811,17908 Z"/>
       </g>
      </g>
      <g class="com.sun.star.drawing.ClosedBezierShape">
       <g id="id46">
        <rect class="BoundingBox" stroke="none" fill="none" x="12176" y="17638" width="194" height="231"/>
        <path fill="rgb(247,209,213)" stroke="none" d="M 12348,17775 C 12300,17864 12206,17898 12182,17835 12157,17769 12229,17639 12291,17639 12364,17639 12389,17699 12348,17775 Z"/>
        <path fill="none" stroke="rgb(52,101,164)" d="M 12348,17775 C 12300,17864 12206,17898 12182,17835 12157,17769 12229,17639 12291,17639 12364,17639 12389,17699 12348,17775 Z"/>
       </g>
      </g>
      <g class="com.sun.star.drawing.ClosedBezierShape">
       <g id="id47">
        <rect class="BoundingBox" stroke="none" fill="none" x="28824" y="17120" width="629" height="589"/>
        <path fill="rgb(247,209,213)" stroke="none" d="M 29399,17662 C 29310,17727 29208,17721 29083,17644 28933,17552 28858,17457 28833,17331 28815,17240 28826,17212 28902,17162 28978,17113 29013,17110 29108,17142 29366,17232 29546,17555 29399,17662 Z"/>
        <path fill="none" stroke="rgb(52,101,164)" d="M 29399,17662 C 29310,17727 29208,17721 29083,17644 28933,17552 28858,17457 28833,17331 28815,17240 28826,17212 28902,17162 28978,17113 29013,17110 29108,17142 29366,17232 29546,17555 29399,17662 Z"/>
       </g>
      </g>
      <g class="com.sun.star.drawing.ClosedBezierShape">
       <g id="id48">
        <rect class="BoundingBox" stroke="none" fill="none" x="13087" y="16767" width="629" height="589"/>
        <path fill="rgb(247,209,213)" stroke="none" d="M 13432,17307 C 13312,17370 13223,17370 13141,17310 12993,17202 13174,16880 13431,16790 13526,16757 13562,16760 13637,16810 13714,16860 13725,16887 13706,16979 13682,17104 13572,17234 13432,17307 Z"/>
        <path fill="none" stroke="rgb(52,101,164)" d="M 13432,17307 C 13312,17370 13223,17370 13141,17310 12993,17202 13174,16880 13431,16790 13526,16757 13562,16760 13637,16810 13714,16860 13725,16887 13706,16979 13682,17104 13572,17234 13432,17307 Z"/>
       </g>
      </g>
      <g class="com.sun.star.drawing.ClosedBezierShape">
       <g id="id49">
        <rect class="BoundingBox" stroke="none" fill="none" x="27830" y="16651" width="706" height="541"/>
        <path fill="rgb(247,209,213)" stroke="none" d="M 28492,17136 C 28291,17294 27831,17078 27831,16826 27831,16586 28266,16596 28471,16841 28544,16928 28556,17086 28492,17136 Z"/>
        <path fill="none" stroke="rgb(52,101,164)" d="M 28492,17136 C 28291,17294 27831,17078 27831,16826 27831,16586 28266,16596 28471,16841 28544,16928 28556,17086 28492,17136 Z"/>
       </g>
      </g>
      <g class="com.sun.star.drawing.ClosedBezierShape">
       <g id="id50">
        <rect class="BoundingBox" stroke="none" fill="none" x="28687" y="16725" width="239" height="210"/>
        <path fill="rgb(247,209,213)" stroke="none" d="M 28761,16728 C 28841,16712 28924,16784 28924,16867 28924,16950 28810,16956 28731,16877 28664,16809 28677,16744 28761,16728 Z"/>
        <path fill="none" stroke="rgb(52,101,164)" d="M 28761,16728 C 28841,16712 28924,16784 28924,16867 28924,16950 28810,16956 28731,16877 28664,16809 28677,16744 28761,16728 Z"/>
       </g>
      </g>
      <g class="com.sun.star.drawing.ClosedBezierShape">
       <g id="id51">
        <rect class="BoundingBox" stroke="none" fill="none" x="14002" y="16298" width="712" height="543"/>
        <path fill="rgb(247,209,213)" stroke="none" d="M 14462,16299 C 14724,16299 14795,16489 14605,16679 14498,16786 14287,16860 14162,16834 13820,16765 14082,16299 14462,16299 Z"/>
        <path fill="none" stroke="rgb(52,101,164)" d="M 14462,16299 C 14724,16299 14795,16489 14605,16679 14498,16786 14287,16860 14162,16834 13820,16765 14082,16299 14462,16299 Z"/>
       </g>
      </g>
      <g class="com.sun.star.drawing.ClosedBezierShape">
       <g id="id52">
        <rect class="BoundingBox" stroke="none" fill="none" x="26524" y="16195" width="882" height="603"/>
        <path fill="rgb(247,209,213)" stroke="none" d="M 27352,16737 C 27164,16925 26525,16628 26525,16353 26525,16225 26608,16182 26824,16200 27043,16218 27274,16355 27357,16515 27421,16639 27420,16669 27352,16737 Z"/>
        <path fill="none" stroke="rgb(52,101,164)" d="M 27352,16737 C 27164,16925 26525,16628 26525,16353 26525,16225 26608,16182 26824,16200 27043,16218 27274,16355 27357,16515 27421,16639 27420,16669 27352,16737 Z"/>
       </g>
      </g>
      <g class="com.sun.star.drawing.ClosedBezierShape">
       <g id="id53">
        <rect class="BoundingBox" stroke="none" fill="none" x="13614" y="16372" width="239" height="210"/>
        <path fill="rgb(247,209,213)" stroke="none" d="M 13808,16524 C 13729,16603 13615,16598 13615,16515 13615,16431 13699,16360 13778,16375 13862,16391 13876,16456 13808,16524 Z"/>
        <path fill="none" stroke="rgb(52,101,164)" d="M 13808,16524 C 13729,16603 13615,16598 13615,16515 13615,16431 13699,16360 13778,16375 13862,16391 13876,16456 13808,16524 Z"/>
       </g>
      </g>
      <g class="com.sun.star.drawing.ClosedBezierShape">
       <g id="id54">
        <rect class="BoundingBox" stroke="none" fill="none" x="15131" y="15838" width="883" height="600"/>
        <path fill="rgb(247,209,213)" stroke="none" d="M 15961,15875 C 16095,15986 15955,16236 15684,16366 15439,16485 15132,16445 15132,16294 15132,16208 15245,16056 15378,15964 15545,15849 15869,15799 15961,15875 Z"/>
        <path fill="none" stroke="rgb(52,101,164)" d="M 15961,15875 C 16095,15986 15955,16236 15684,16366 15439,16485 15132,16445 15132,16294 15132,16208 15245,16056 15378,15964 15545,15849 15869,15799 15961,15875 Z"/>
       </g>
      </g>
      <g class="com.sun.star.drawing.ClosedBezierShape">
       <g id="id55">
        <rect class="BoundingBox" stroke="none" fill="none" x="27623" y="16227" width="203" height="213"/>
        <path fill="rgb(247,209,213)" stroke="none" d="M 27820,16382 C 27792,16454 27659,16458 27632,16387 27608,16325 27639,16228 27682,16228 27752,16228 27841,16327 27820,16382 Z"/>
        <path fill="none" stroke="rgb(52,101,164)" d="M 27820,16382 C 27792,16454 27659,16458 27632,16387 27608,16325 27639,16228 27682,16228 27752,16228 27841,16327 27820,16382 Z"/>
       </g>
      </g>
      <g class="com.sun.star.drawing.ClosedBezierShape">
       <g id="id56">
        <rect class="BoundingBox" stroke="none" fill="none" x="14714" y="15885" width="191" height="199"/>
        <path fill="rgb(247,209,213)" stroke="none" d="M 14763,15923 C 14852,15858 14903,15880 14903,15984 14903,16046 14881,16072 14823,16081 14716,16096 14675,15987 14763,15923 Z"/>
        <path fill="none" stroke="rgb(52,101,164)" d="M 14763,15923 C 14852,15858 14903,15880 14903,15984 14903,16046 14881,16072 14823,16081 14716,16096 14675,15987 14763,15923 Z"/>
       </g>
      </g>
      <g class="com.sun.star.drawing.ClosedBezierShape">
       <g id="id57">
        <rect class="BoundingBox" stroke="none" fill="none" x="12187" y="12309" width="795" height="565"/>
        <path fill="rgb(247,209,213)" stroke="none" d="M 12865,12807 C 12642,12943 12283,12856 12203,12645 12114,12412 12444,12231 12747,12346 12998,12442 13061,12687 12865,12807 Z"/>
        <path fill="none" stroke="rgb(52,101,164)" d="M 12865,12807 C 12642,12943 12283,12856 12203,12645 12114,12412 12444,12231 12747,12346 12998,12442 13061,12687 12865,12807 Z"/>
       </g>
      </g>
      <g class="com.sun.star.drawing.ClosedBezierShape">
       <g id="id58">
        <rect class="BoundingBox" stroke="none" fill="none" x="10302" y="12242" width="1192" height="567"/>
        <path fill="rgb(247,209,213)" stroke="none" d="M 11357,12744 C 11129,12858 10669,12812 10423,12651 10330,12590 10275,12450 10318,12381 10402,12245 10895,12197 11188,12296 11509,12406 11593,12627 11357,12744 Z"/>
        <path fill="none" stroke="rgb(52,101,164)" d="M 11357,12744 C 11129,12858 10669,12812 10423,12651 10330,12590 10275,12450 10318,12381 10402,12245 10895,12197 11188,12296 11509,12406 11593,12627 11357,12744 Z"/>
       </g>
      </g>
      <g class="com.sun.star.drawing.ClosedBezierShape">
       <g id="id59">
        <rect class="BoundingBox" stroke="none" fill="none" x="30617" y="12241" width="796" height="565"/>
        <path fill="rgb(247,209,213)" stroke="none" d="M 31245,12736 C 31002,12884 30618,12776 30618,12560 30618,12229 31232,12116 31393,12418 31445,12515 31381,12652 31245,12736 Z"/>
        <path fill="none" stroke="rgb(52,101,164)" d="M 31245,12736 C 31002,12884 30618,12776 30618,12560 30618,12229 31232,12116 31393,12418 31445,12515 31381,12652 31245,12736 Z"/>
       </g>
      </g>
      <g class="com.sun.star.drawing.ClosedBezierShape">
       <g id="id60">
        <rect class="BoundingBox" stroke="none" fill="none" x="32105" y="12171" width="1191" height="562"/>
        <path fill="rgb(247,209,213)" stroke="none" d="M 33080,12634 C 32868,12744 32415,12766 32240,12676 32006,12555 32089,12335 32410,12226 32722,12120 33228,12180 33286,12331 33323,12427 33238,12553 33080,12634 Z"/>
        <path fill="none" stroke="rgb(52,101,164)" d="M 33080,12634 C 32868,12744 32415,12766 32240,12676 32006,12555 32089,12335 32410,12226 32722,12120 33228,12180 33286,12331 33323,12427 33238,12553 33080,12634 Z"/>
       </g>
      </g>
      <g class="com.sun.star.drawing.ClosedBezierShape">
       <g id="id61">
        <rect class="BoundingBox" stroke="none" fill="none" x="8711" y="11948" width="811" height="616"/>
        <path fill="rgb(247,209,213)" stroke="none" d="M 9443,12203 C 9537,12344 9544,12428 9467,12504 9378,12594 9105,12576 8949,12470 8821,12383 8712,12224 8712,12126 8712,12043 8842,11953 8966,11949 9130,11945 9348,12061 9443,12203 Z"/>
        <path fill="none" stroke="rgb(52,101,164)" d="M 9443,12203 C 9537,12344 9544,12428 9467,12504 9378,12594 9105,12576 8949,12470 8821,12383 8712,12224 8712,12126 8712,12043 8842,11953 8966,11949 9130,11945 9348,12061 9443,12203 Z"/>
       </g>
      </g>
      <g class="com.sun.star.drawing.ClosedBezierShape">
       <g id="id62">
        <rect class="BoundingBox" stroke="none" fill="none" x="34074" y="11878" width="814" height="616"/>
        <path fill="rgb(247,209,213)" stroke="none" d="M 34648,12400 C 34419,12556 34075,12505 34075,12315 34075,12122 34394,11872 34632,11879 34756,11882 34886,11972 34886,12055 34886,12154 34776,12312 34648,12400 Z"/>
        <path fill="none" stroke="rgb(52,101,164)" d="M 34648,12400 C 34419,12556 34075,12505 34075,12315 34075,12122 34394,11872 34632,11879 34756,11882 34886,11972 34886,12055 34886,12154 34776,12312 34648,12400 Z"/>
       </g>
      </g>
      <g class="com.sun.star.drawing.ClosedBezierShape">
       <g id="id63">
        <rect class="BoundingBox" stroke="none" fill="none" x="11715" y="12040" width="344" height="284"/>
        <path fill="rgb(247,209,213)" stroke="none" d="M 11819,12047 C 11919,12015 12070,12121 12056,12214 12037,12341 11802,12362 11729,12244 11691,12183 11743,12071 11819,12047 Z"/>
        <path fill="none" stroke="rgb(52,101,164)" d="M 11819,12047 C 11919,12015 12070,12121 12056,12214 12037,12341 11802,12362 11729,12244 11691,12183 11743,12071 11819,12047 Z"/>
       </g>
      </g>
      <g class="com.sun.star.drawing.ClosedBezierShape">
       <g id="id64">
        <rect class="BoundingBox" stroke="none" fill="none" x="9780" y="11931" width="445" height="346"/>
        <path fill="rgb(247,209,213)" stroke="none" d="M 10172,12231 C 10078,12300 9962,12287 9855,12195 9773,12125 9766,12103 9801,12037 9856,11934 10006,11900 10120,11964 10232,12027 10259,12167 10172,12231 Z"/>
        <path fill="none" stroke="rgb(52,101,164)" d="M 10172,12231 C 10078,12300 9962,12287 9855,12195 9773,12125 9766,12103 9801,12037 9856,11934 10006,11900 10120,11964 10232,12027 10259,12167 10172,12231 Z"/>
       </g>
      </g>
      <g class="com.sun.star.drawing.ClosedBezierShape">
       <g id="id65">
        <rect class="BoundingBox" stroke="none" fill="none" x="31534" y="11970" width="345" height="286"/>
        <path fill="rgb(247,209,213)" stroke="none" d="M 31778,11976 C 31865,12004 31907,12122 31854,12187 31762,12298 31535,12263 31535,12138 31535,12047 31686,11947 31778,11976 Z"/>
        <path fill="none" stroke="rgb(52,101,164)" d="M 31778,11976 C 31865,12004 31907,12122 31854,12187 31762,12298 31535,12263 31535,12138 31535,12047 31686,11947 31778,11976 Z"/>
       </g>
      </g>
      <g class="com.sun.star.drawing.ClosedBezierShape">
       <g id="id66">
        <rect class="BoundingBox" stroke="none" fill="none" x="33372" y="11863" width="446" height="341"/>
        <path fill="rgb(247,209,213)" stroke="none" d="M 33796,11967 C 33832,12033 33824,12054 33742,12125 33581,12264 33350,12204 33375,12029 33401,11846 33707,11800 33796,11967 Z"/>
        <path fill="none" stroke="rgb(52,101,164)" d="M 33796,11967 C 33832,12033 33824,12054 33742,12125 33581,12264 33350,12204 33375,12029 33401,11846 33707,11800 33796,11967 Z"/>
       </g>
      </g>
      <g class="com.sun.star.drawing.ClosedBezierShape">
       <g id="id67">
        <rect class="BoundingBox" stroke="none" fill="none" x="7485" y="11218" width="696" height="599"/>
        <path fill="rgb(247,209,213)" stroke="none" d="M 8071,11447 C 8194,11588 8211,11679 8127,11763 8096,11794 8053,11817 8030,11815 7615,11784 7264,11219 7659,11219 7799,11219 7938,11296 8071,11447 Z"/>
        <path fill="none" stroke="rgb(52,101,164)" d="M 8071,11447 C 8194,11588 8211,11679 8127,11763 8096,11794 8053,11817 8030,11815 7615,11784 7264,11219 7659,11219 7799,11219 7938,11296 8071,11447 Z"/>
       </g>
      </g>
      <g class="com.sun.star.drawing.ClosedBezierShape">
       <g id="id68">
        <rect class="BoundingBox" stroke="none" fill="none" x="8543" y="11505" width="341" height="274"/>
        <path fill="rgb(247,209,213)" stroke="none" d="M 8653,11507 C 8775,11493 8895,11592 8881,11693 8866,11796 8714,11806 8612,11711 8507,11613 8525,11522 8653,11507 Z"/>
        <path fill="none" stroke="rgb(52,101,164)" d="M 8653,11507 C 8775,11493 8895,11592 8881,11693 8866,11796 8714,11806 8612,11711 8507,11613 8525,11522 8653,11507 Z"/>
       </g>
      </g>
      <g class="com.sun.star.drawing.ClosedBezierShape">
       <g id="id69">
        <rect class="BoundingBox" stroke="none" fill="none" x="35414" y="11153" width="700" height="579"/>
        <path fill="rgb(247,209,213)" stroke="none" d="M 35875,11626 C 35628,11785 35415,11759 35415,11569 35415,11480 35635,11239 35765,11185 35897,11130 36051,11150 36099,11227 36153,11313 36035,11523 35875,11626 Z"/>
        <path fill="none" stroke="rgb(52,101,164)" d="M 35875,11626 C 35628,11785 35415,11759 35415,11569 35415,11480 35635,11239 35765,11185 35897,11130 36051,11150 36099,11227 36153,11313 36035,11523 35875,11626 Z"/>
       </g>
      </g>
      <g class="com.sun.star.drawing.ClosedBezierShape">
       <g id="id70">
        <rect class="BoundingBox" stroke="none" fill="none" x="34704" y="11435" width="352" height="280"/>
        <path fill="rgb(247,209,213)" stroke="none" d="M 34987,11639 C 34910,11711 34781,11736 34733,11689 34641,11597 34790,11419 34944,11437 35072,11451 35091,11542 34987,11639 Z"/>
        <path fill="none" stroke="rgb(52,101,164)" d="M 34987,11639 C 34910,11711 34781,11736 34733,11689 34641,11597 34790,11419 34944,11437 35072,11451 35091,11542 34987,11639 Z"/>
       </g>
      </g>
      <g class="com.sun.star.drawing.ClosedBezierShape">
       <g id="id71">
        <rect class="BoundingBox" stroke="none" fill="none" x="6811" y="10724" width="418" height="354"/>
        <path fill="rgb(247,209,213)" stroke="none" d="M 6990,10725 C 7166,10725 7295,10928 7188,11035 7119,11104 6986,11084 6893,10991 6754,10852 6800,10725 6990,10725 Z"/>
        <path fill="none" stroke="rgb(52,101,164)" d="M 6990,10725 C 7166,10725 7295,10928 7188,11035 7119,11104 6986,11084 6893,10991 6754,10852 6800,10725 6990,10725 Z"/>
       </g>
      </g>
      <g class="com.sun.star.drawing.ClosedBezierShape">
       <g id="id72">
        <rect class="BoundingBox" stroke="none" fill="none" x="36367" y="10653" width="424" height="353"/>
        <path fill="rgb(247,209,213)" stroke="none" d="M 36705,10921 C 36568,11057 36368,11020 36368,10859 36368,10704 36640,10588 36749,10697 36813,10761 36800,10825 36705,10921 Z"/>
        <path fill="none" stroke="rgb(52,101,164)" d="M 36705,10921 C 36568,11057 36368,11020 36368,10859 36368,10704 36640,10588 36749,10697 36813,10761 36800,10825 36705,10921 Z"/>
       </g>
      </g>
      <g class="com.sun.star.drawing.ClosedBezierShape">
       <g id="id73">
        <rect class="BoundingBox" stroke="none" fill="none" x="17862" y="9690" width="3002" height="1242"/>
        <path fill="rgb(114,159,207)" stroke="none" d="M 20859,10759 C 20898,10797 20595,10863 20194,10903 19833,10939 19737,10939 19357,10898 18357,10793 17747,10374 17882,9887 17952,9636 17937,9637 18447,9825 18924,10000 18977,10040 18978,10220 18978,10275 19019,10407 19068,10513 19154,10697 19162,10703 19210,10638 19238,10600 19287,10485 19319,10382 19352,10280 19388,10196 19401,10196 19446,10196 20830,10730 20859,10759 Z"/>
        <path fill="none" stroke="rgb(52,101,164)" d="M 20859,10759 C 20898,10797 20595,10863 20194,10903 19833,10939 19737,10939 19357,10898 18357,10793 17747,10374 17882,9887 17952,9636 17937,9637 18447,9825 18924,10000 18977,10040 18978,10220 18978,10275 19019,10407 19068,10513 19154,10697 19162,10703 19210,10638 19238,10600 19287,10485 19319,10382 19352,10280 19388,10196 19401,10196 19446,10196 20830,10730 20859,10759 Z"/>
       </g>
      </g>
      <g class="com.sun.star.drawing.ClosedBezierShape">
       <g id="id74">
        <rect class="BoundingBox" stroke="none" fill="none" x="21994" y="9688" width="3003" height="1245"/>
        <path fill="rgb(114,159,207)" stroke="none" d="M 24777,10441 C 24507,10690 24095,10833 23456,10900 23272,10919 23066,10933 22998,10931 22550,10914 21946,10810 21998,10758 22025,10731 23413,10197 23459,10196 23470,10196 23505,10280 23538,10382 23570,10485 23618,10599 23646,10636 23692,10700 23699,10695 23769,10559 23809,10479 23853,10345 23866,10261 23879,10176 23902,10084 23916,10054 23931,10025 24153,9923 24408,9827 24920,9635 24904,9634 24975,9887 25031,10089 24968,10265 24777,10441 Z"/>
        <path fill="none" stroke="rgb(52,101,164)" d="M 24777,10441 C 24507,10690 24095,10833 23456,10900 23272,10919 23066,10933 22998,10931 22550,10914 21946,10810 21998,10758 22025,10731 23413,10197 23459,10196 23470,10196 23505,10280 23538,10382 23570,10485 23618,10599 23646,10636 23692,10700 23699,10695 23769,10559 23809,10479 23853,10345 23866,10261 23879,10176 23902,10084 23916,10054 23931,10025 24153,9923 24408,9827 24920,9635 24904,9634 24975,9887 25031,10089 24968,10265 24777,10441 Z"/>
       </g>
      </g>
      <g class="com.sun.star.drawing.ClosedBezierShape">
       <g id="id75">
        <rect class="BoundingBox" stroke="none" fill="none" x="2660" y="2736" width="38279" height="31565"/>
        <path fill="rgb(0,0,0)" stroke="none" d="M 24863,4354 L 24986,4426 25107,4501 25226,4579 25343,4659 25457,4742 25569,4827 25679,4914 25786,5004 25890,5096 25992,5190 26091,5287 26187,5385 26281,5486 26371,5588 26459,5693 26543,5799 26625,5907 26703,6017 26778,6128 26851,6241 26919,6356 26985,6472 27047,6589 27106,6707 27161,6827 27213,6948 27262,7070 27307,7194 27348,7318 27386,7442 27421,7568 27452,7694 27479,7821 27502,7949 27522,8077 27539,8205 27547,8295 C 27649,8654 27653,8689 27676,9697 27700,10729 27700,10732 27775,10708 28893,10354 30042,10371 31324,10760 31955,10951 32302,11008 32830,11008 33753,11008 34513,10791 35267,10314 35926,9896 36530,9231 36881,8537 37429,7453 38449,6812 39625,6810 39915,6810 40347,6885 40572,6975 40882,7099 41018,7415 40889,7706 40758,8004 40460,8088 40097,7930 39821,7810 39351,7817 39085,7944 38748,8104 38510,8395 38379,8803 38300,9051 38028,9642 37876,9897 37204,11022 36239,11911 35116,12440 34412,12772 33685,12957 32838,13020 31298,13135 30080,13424 28890,13959 28258,14244 27183,14855 27235,14900 27243,14907 27424,15002 27638,15111 28356,15476 28764,15761 29828,16639 30405,17115 30780,17381 31077,17526 31310,17640 31374,17656 31606,17656 31945,17657 32140,17566 32438,17268 32848,16857 33066,16256 32987,15750 32923,15336 32750,15040 32298,14570 31839,14092 31712,13936 31712,13845 31712,13706 31801,13567 31937,13494 32058,13429 32067,13429 32266,13490 32968,13707 33674,14292 34008,14933 34718,16295 34403,17811 33229,18689 32763,19037 32170,19229 31552,19232 31063,19234 30784,19169 30313,18942 29994,18789 29906,18724 29530,18365 28876,17743 28358,17414 27661,17180 27332,17070 26755,16957 26614,16975 26532,16986 26539,17002 26772,17318 27004,17632 27032,17657 27292,17780 27997,18113 28651,18565 29202,19101 29760,19643 30116,20123 30437,20764 30776,21446 30902,21802 31253,23081 31577,24262 31718,24615 31984,24910 32202,25151 32345,25206 32753,25206 33052,25206 33146,25191 33370,25108 34054,24854 34480,24327 34526,23677 34537,23513 34514,23167 34461,22729 L 34378,22040 34492,21939 C 34581,21859 34640,21837 34763,21837 34894,21837 34937,21856 35037,21958 35102,22025 35228,22219 35318,22390 35964,23616 35761,25022 34798,25982 34436,26344 34052,26571 33564,26712 33199,26817 32461,26825 32100,26728 31543,26577 30967,26208 30620,25780 30282,25362 30124,24959 29971,24130 29786,23127 29210,22165 28419,21536 28254,21405 27956,21189 27756,21056 L 27393,20814 27083,20814 C 26913,20814 26773,20822 26773,20831 26773,20840 26851,20995 26946,21175 27482,22187 27773,23365 27713,24278 27654,25176 27408,25807 26781,26670 26412,27176 26246,27676 26245,28275 26244,29016 26537,29688 27088,30207 27662,30749 28396,31008 29208,30956 29490,30938 29562,30945 29664,30998 29842,31092 29925,31224 29925,31415 29925,31702 29777,31829 29271,31975 27678,32436 25943,31792 25048,30409 24651,29795 24469,29180 24468,28451 24468,27892 24498,27738 24763,26952 25079,26016 25129,25736 25131,24888 25132,24107 25075,23707 24867,23063 24723,22617 24354,21889 24066,21484 23752,21043 23156,20453 22602,20038 22268,19787 22156,19683 22154,19623 22153,19568 22131,19544 22082,19544 22042,19544 22011,19521 22011,19491 22011,19458 21978,19438 21923,19438 21868,19438 21835,19418 21835,19385 21835,19356 21803,19332 21764,19332 21725,19332 21694,19310 21694,19283 21694,19197 21595,19192 21541,19275 21423,19455 21021,20295 20872,20673 20553,21485 20354,22222 20202,23159 20136,23572 20127,23773 20124,25135 20119,26771 20101,26984 19907,27653 19408,29379 18328,30684 16649,31589 16205,31828 16081,31941 15932,32243 15831,32449 15820,32503 15820,32790 15820,33093 15827,33122 15970,33409 16139,33749 16145,33790 16051,33996 15947,34225 15709,34341 15454,34287 15194,34232 15032,33999 14878,33461 14811,33226 14798,33096 14799,32685 14801,32009 14919,31596 15262,31066 15487,30718 15728,30476 16190,30135 16704,29755 17108,29345 17402,28902 17925,28118 18166,27323 18166,26388 18166,25649 18041,25115 17691,24346 17261,23404 17074,22491 17120,21563 17142,21108 17341,20100 17521,19526 17676,19030 17967,18500 18304,18098 18393,17991 18490,17872 18519,17834 18621,17699 17686,18483 17440,18738 16679,19528 16292,20638 16402,21710 16421,21903 16444,22067 16452,22075 16460,22083 16428,22203 16381,22341 16177,22940 16142,23385 16211,24500 16264,25367 16179,26103 15942,26810 15432,28331 14518,29442 13389,29912 12792,30160 12081,30268 11483,30201 10804,30125 10268,29942 10123,29738 10013,29584 10006,29325 10108,29188 10277,28962 10321,28949 10927,28943 11374,28939 11537,28923 11764,28862 12929,28547 13784,27628 13984,26477 14052,26087 14052,25877 13985,25490 13910,25061 13750,24671 13497,24300 13136,23772 12952,23457 12820,23142 12314,21937 12342,20608 12897,19405 13216,18714 13858,17963 14496,17537 14680,17415 15069,17198 15360,17056 15652,16914 15938,16757 15996,16708 L 16102,16619 15957,16617 C 15534,16614 14793,16819 14261,17088 13820,17310 13498,17549 13012,18013 12635,18371 12548,18436 12229,18589 11758,18816 11478,18881 10989,18879 9278,18872 7975,17405 8175,15710 8316,14522 9082,13568 10229,13154 10451,13073 10475,13058 10377,13056 10176,13053 9557,12913 9171,12784 7730,12301 6535,11325 5724,9967 5571,9712 5299,9122 5220,8874 5090,8466 4851,8175 4515,8014 4249,7887 3779,7881 3503,8001 3140,8158 2842,8074 2710,7777 2582,7486 2707,7189 3014,7055 3230,6960 3668,6881 3975,6881 5151,6882 6170,7524 6719,8608 7070,9302 7674,9967 8333,10384 9086,10862 9847,11079 10770,11079 11298,11079 11645,11021 12276,10830 13394,10491 14409,10433 15359,10655 15515,10691 15648,10716 15654,10709 15661,10703 15633,10591 15593,10461 15431,9936 15374,9561 15354,8892 15321,7766 15480,7013 15959,6016 16631,4617 17782,3536 19242,2935 19740,2730 21039,2670 21791,2819 22525,2963 23322,3282 23845,3641 23972,3727 24154,3852 24251,3918 24348,3984 24448,4059 24474,4084 24500,4109 24540,4129 24564,4129 24588,4129 24675,4193 24758,4270 24786,4295 24813,4319 24838,4340 L 24863,4354 Z M 25603,29685 C 25369,29418 25126,29646 25225,30040 25297,30325 25524,30490 25660,30354 25798,30216 25769,29873 25603,29685 Z M 18425,29351 C 18330,29351 18236,29474 18236,29599 18236,29785 18397,29833 18516,29681 18642,29522 18595,29351 18425,29351 Z M 24998,29063 C 25120,28948 25115,28678 24990,28579 24870,28486 24745,28538 24690,28703 24628,28892 24735,29133 24884,29138 24902,29139 24954,29105 24998,29063 Z M 19018,28328 C 18824,28328 18584,28746 18661,28950 18712,29083 18874,29063 19011,28906 19251,28633 19255,28328 19018,28328 Z M 24758,27905 C 24692,27905 24648,28068 24691,28149 24747,28255 24848,28229 24862,28105 24873,28008 24820,27905 24758,27905 Z M 15029,27974 C 15153,27907 15278,27604 15266,27400 15256,27223 15252,27217 15151,27217 14998,27217 14844,27448 14822,27709 14800,27972 14869,28059 15029,27974 Z M 19055,27676 C 19006,27569 18965,27564 18871,27658 18792,27737 18779,27869 18844,27933 18900,27989 18940,27973 19025,27859 19084,27781 19089,27751 19055,27676 Z M 19535,27679 C 19670,27609 19789,27381 19789,27192 19789,26946 19670,26848 19482,26940 19255,27049 19128,27493 19277,27657 19353,27741 19406,27746 19535,27679 Z M 25148,27626 C 25318,27443 25379,27094 25265,26956 25211,26891 25193,26888 25119,26926 24878,27050 24775,27728 24997,27728 25027,27728 25095,27682 25148,27626 Z M 15154,26568 C 15088,26513 15009,26550 14959,26658 14873,26847 15031,26969 15148,26803 15215,26706 15218,26621 15154,26568 Z M 19336,26612 C 19416,26539 19421,26343 19345,26267 19221,26142 19069,26238 19069,26441 19069,26646 19203,26732 19336,26612 Z M 15640,26412 C 15738,26280 15744,25981 15651,25912 15504,25805 15309,26004 15308,26261 15308,26522 15495,26606 15640,26412 Z M 31963,26141 C 31890,26141 31783,26227 31783,26287 31783,26307 31829,26369 31886,26426 31997,26537 32119,26557 32222,26481 32360,26380 32178,26141 31963,26141 Z M 25648,25576 C 25492,25576 25305,25918 25353,26115 25395,26287 25470,26319 25605,26224 25817,26076 25850,25576 25648,25576 Z M 31363,25375 C 31216,25276 31168,25274 31077,25365 30944,25498 31010,25820 31215,26035 31362,26190 31523,26224 31611,26118 31738,25965 31592,25529 31363,25375 Z M 19677,26032 C 19841,25857 19871,25284 19730,25041 19674,24945 19640,24924 19543,24924 19442,24924 19415,24943 19357,25056 19112,25527 19382,26349 19677,26032 Z M 15198,25294 C 15145,25294 15061,25408 15061,25479 15061,25520 15087,25582 15119,25617 15204,25711 15308,25643 15308,25494 15308,25386 15257,25294 15198,25294 Z M 30800,25420 C 30882,25241 30721,24856 30574,24877 30431,24898 30450,25214 30606,25399 30714,25528 30749,25532 30800,25420 Z M 25959,25356 C 25991,25268 25959,25146 25897,25126 25829,25103 25772,25273 25819,25360 25870,25457 25921,25456 25959,25356 Z M 15850,25179 C 15988,24993 15923,24562 15747,24495 15653,24458 15522,24518 15468,24623 15367,24818 15425,25213 15563,25271 15659,25311 15781,25272 15850,25179 Z M 25623,25000 C 25773,24799 25684,24236 25502,24236 25461,24236 25402,24284 25360,24350 25222,24570 25323,25145 25493,25111 25524,25105 25582,25055 25623,25000 Z M 30832,24520 C 30806,24478 30791,24478 30745,24516 30679,24570 30673,24664 30731,24722 30782,24773 30866,24715 30865,24628 30865,24597 30850,24548 30832,24520 Z M 19203,24674 C 19244,24565 19224,24450 19156,24413 19068,24366 19063,24367 18997,24432 18932,24498 18925,24628 18984,24687 19045,24748 19177,24740 19203,24674 Z M 30493,24533 C 30634,24391 30504,24040 30342,24127 30174,24217 30228,24564 30413,24586 30426,24587 30462,24564 30493,24533 Z M 26104,24340 C 26191,24178 26108,23883 25976,23883 25901,23883 25821,24032 25821,24173 25821,24402 26011,24514 26104,24340 Z M 19508,24199 C 19775,24057 19702,23424 19420,23424 19140,23424 19018,23927 19242,24152 19334,24243 19403,24256 19508,24199 Z M 15727,23757 C 15887,23554 15851,23173 15659,23030 15541,22942 15405,22989 15324,23146 15238,23312 15268,23641 15378,23759 15489,23877 15634,23876 15727,23757 Z M 30491,23571 C 30532,23429 30435,23162 30314,23083 30102,22944 29954,23208 30071,23515 30180,23800 30416,23832 30491,23571 Z M 25835,23675 C 26039,23449 25863,22711 25565,22544 25476,22494 25464,22495 25391,22569 25328,22632 25309,22698 25299,22886 25270,23402 25619,23914 25835,23675 Z M 30435,22770 C 30441,22730 30415,22670 30378,22637 30318,22582 30307,22581 30266,22631 30230,22674 30229,22706 30261,22775 30309,22881 30419,22878 30435,22770 Z M 29678,22090 C 29451,22117 29434,22441 29648,22667 29746,22771 29788,22792 29884,22783 29972,22775 30008,22750 30032,22680 30113,22448 29884,22066 29678,22090 Z M 15523,21342 C 15370,21182 15251,21162 15075,21269 14745,21471 14726,22180 15044,22431 15199,22552 15362,22533 15519,22375 15789,22104 15791,21623 15523,21342 Z M 29282,21762 C 29344,21700 29353,21661 29336,21532 29265,21014 28714,20713 28714,21193 28714,21348 28891,21667 29028,21758 29175,21855 29189,21855 29282,21762 Z M 29808,21663 C 29786,21620 29741,21591 29708,21597 29625,21613 29611,21735 29687,21791 29741,21830 29759,21830 29800,21789 29839,21750 29841,21723 29808,21663 Z M 31672,19011 C 31907,18929 31826,18648 31517,18478 31320,18369 31131,18353 31015,18435 30814,18575 31046,18900 31430,19017 31552,19055 31548,19055 31672,19011 Z M 32459,18886 C 32599,18759 32506,18592 32295,18592 32206,18592 32030,18729 32030,18799 32030,18933 32338,18996 32459,18886 Z M 30753,18793 C 30781,18647 30519,18416 30326,18415 30190,18415 30171,18500 30277,18639 30434,18844 30726,18939 30753,18793 Z M 11513,18414 C 11770,18108 11426,17904 11025,18125 10492,18418 10749,18864 11292,18589 11362,18553 11462,18475 11513,18414 Z M 10425,18325 C 10220,18120 9884,18315 10076,18527 10149,18608 10379,18613 10456,18536 10531,18461 10526,18427 10425,18325 Z M 12052,18463 C 12197,18394 12362,18191 12333,18116 12322,18085 12269,18062 12211,18062 12014,18062 11739,18325 11792,18463 11821,18536 11897,18537 12052,18463 Z M 29632,17954 C 29556,18097 29711,18317 29878,18300 29948,18293 29968,18270 29977,18184 29997,17976 29719,17791 29632,17954 Z M 30342,18078 C 30317,18023 30277,17991 30242,17998 30152,18016 30148,18085 30232,18170 30333,18271 30403,18213 30342,18078 Z M 12812,17908 C 12965,17792 12958,17533 12802,17533 12654,17533 12486,17838 12581,17933 12620,17971 12747,17958 12812,17908 Z M 12349,17775 C 12390,17699 12365,17639 12292,17639 12230,17639 12158,17769 12183,17835 12207,17898 12301,17864 12349,17775 Z M 29400,17662 C 29547,17555 29367,17232 29109,17142 29014,17110 28979,17113 28903,17162 28827,17212 28816,17240 28834,17331 28859,17457 28934,17552 29084,17644 29209,17721 29311,17727 29400,17662 Z M 13433,17307 C 13572,17234 13682,17104 13706,16979 13725,16887 13714,16860 13637,16810 13562,16760 13527,16757 13432,16790 13175,16880 12994,17202 13142,17310 13224,17370 13313,17370 13433,17307 Z M 12713,16286 C 13478,15655 13803,15407 14197,15157 14552,14932 15186,14601 15387,14537 15460,14513 15526,14483 15535,14468 15550,14444 15218,14266 14779,14064 13611,13524 12219,13181 10890,13104 L 10529,13083 10633,13155 C 10758,13242 10826,13356 10828,13485 10829,13584 10718,13723 10244,14217 9792,14687 9619,14984 9554,15397 9443,16110 9954,17020 10606,17269 10832,17356 11161,17318 11467,17170 11760,17029 12134,16764 12713,16286 Z M 28493,17136 C 28557,17086 28545,16928 28472,16841 28267,16596 27832,16586 27832,16826 27832,17078 28292,17294 28493,17136 Z M 28762,16728 C 28678,16744 28665,16809 28732,16877 28811,16956 28925,16950 28925,16867 28925,16784 28842,16712 28762,16728 Z M 14462,16299 C 14082,16299 13820,16765 14162,16834 14287,16860 14498,16786 14605,16679 14795,16489 14724,16299 14462,16299 Z M 27353,16737 C 27421,16669 27422,16639 27358,16515 27275,16355 27044,16218 26825,16200 26609,16182 26526,16225 26526,16353 26526,16628 27165,16925 27353,16737 Z M 13808,16524 C 13876,16456 13862,16391 13778,16375 13699,16360 13615,16431 13615,16515 13615,16598 13729,16603 13808,16524 Z M 15961,15875 C 15869,15799 15545,15849 15378,15964 15245,16056 15132,16208 15132,16294 15132,16445 15439,16485 15684,16366 15955,16236 16095,15986 15961,15875 Z M 27821,16382 C 27842,16327 27753,16228 27683,16228 27640,16228 27609,16325 27633,16387 27660,16458 27793,16454 27821,16382 Z M 14763,15923 C 14675,15987 14716,16096 14823,16081 14881,16072 14903,16046 14903,15984 14903,15880 14852,15858 14763,15923 Z M 12866,12808 C 13062,12688 12999,12443 12748,12347 12445,12232 12115,12413 12204,12646 12284,12857 12643,12944 12866,12808 Z M 11358,12745 C 11594,12628 11510,12407 11189,12297 10896,12198 10403,12246 10319,12382 10276,12451 10331,12591 10424,12652 10670,12813 11130,12859 11358,12745 Z M 31246,12737 C 31382,12653 31446,12516 31394,12419 31233,12117 30619,12230 30619,12561 30619,12777 31003,12885 31246,12737 Z M 33081,12635 C 33239,12554 33324,12428 33287,12332 33229,12181 32723,12121 32411,12227 32090,12336 32007,12556 32241,12677 32416,12767 32869,12745 33081,12635 Z M 9444,12204 C 9349,12062 9131,11946 8967,11950 8843,11954 8713,12044 8713,12127 8713,12225 8822,12384 8950,12471 9106,12577 9379,12595 9468,12505 9545,12429 9538,12345 9444,12204 Z M 34649,12401 C 34777,12313 34887,12155 34887,12056 34887,11973 34757,11883 34633,11880 34395,11873 34076,12123 34076,12316 34076,12506 34420,12557 34649,12401 Z M 11820,12048 C 11744,12072 11692,12184 11730,12245 11803,12363 12038,12342 12057,12215 12071,12122 11920,12016 11820,12048 Z M 10173,12232 C 10260,12168 10233,12028 10121,11965 10007,11901 9857,11935 9802,12038 9767,12104 9774,12126 9856,12196 9963,12288 10079,12301 10173,12232 Z M 31779,11977 C 31687,11948 31536,12048 31536,12139 31536,12264 31763,12299 31855,12188 31908,12123 31866,12005 31779,11977 Z M 33797,11968 C 33708,11801 33402,11847 33376,12030 33351,12205 33582,12265 33743,12126 33825,12055 33833,12034 33797,11968 Z M 8072,11448 C 7939,11297 7800,11220 7660,11220 7265,11220 7616,11785 8031,11816 8054,11818 8097,11795 8128,11764 8212,11680 8195,11589 8072,11448 Z M 8654,11508 C 8526,11523 8508,11614 8613,11712 8715,11807 8867,11797 8882,11694 8896,11593 8776,11494 8654,11508 Z M 35876,11627 C 36036,11524 36154,11314 36100,11228 36052,11151 35898,11131 35766,11186 35636,11240 35416,11481 35416,11570 35416,11760 35629,11786 35876,11627 Z M 34988,11640 C 35092,11543 35073,11452 34945,11438 34791,11420 34642,11598 34734,11690 34782,11737 34911,11712 34988,11640 Z M 6991,10726 C 6801,10726 6755,10853 6894,10992 6987,11085 7120,11105 7189,11036 7296,10929 7167,10726 6991,10726 Z M 36706,10922 C 36801,10826 36814,10762 36750,10698 36641,10589 36369,10705 36369,10860 36369,11021 36569,11058 36706,10922 Z M 20859,10760 C 20830,10731 19446,10197 19401,10197 19388,10197 19352,10281 19319,10383 19287,10486 19238,10601 19210,10639 19162,10704 19154,10698 19068,10514 19019,10408 18978,10276 18978,10221 18977,10041 18924,10001 18447,9826 17937,9638 17952,9637 17882,9888 17747,10375 18357,10794 19357,10899 19737,10940 19833,10940 20194,10904 20595,10864 20898,10798 20859,10760 Z M 24778,10442 C 24969,10266 25032,10090 24976,9888 24905,9635 24921,9636 24409,9828 24154,9924 23932,10026 23917,10055 23903,10085 23880,10177 23867,10262 23854,10346 23810,10480 23770,10560 23700,10696 23693,10701 23647,10637 23619,10600 23571,10486 23539,10383 23506,10281 23471,10197 23460,10197 23414,10198 22026,10732 21999,10759 21947,10811 22551,10915 22999,10932 23067,10934 23273,10920 23457,10901 24096,10834 24508,10691 24778,10442 Z"/>
       </g>
      </g>
     </g>
    </g>
   </g>
  </g>
 </g>
</svg>